<svg xmlns="http://www.w3.org/2000/svg" width="23.4" height="16.25" viewBox="0 0 23.4 16.25"><defs><style>.a{fill:#eaeef6;}</style></defs><path class="a" d="M21.206,32h-5.85a2.008,2.008,0,0,0-2.194,1.741v4.643a2.008,2.008,0,0,0,2.194,1.741h3.656v2.321c0,1.28-1.312,2.321-2.925,2.321h-.366a1,1,0,0,0-1.1.871v1.741a1,1,0,0,0,1.1.871h.366c4.04,0,7.313-2.6,7.313-5.8V33.741A2.008,2.008,0,0,0,21.206,32ZM8.044,32H2.194A2.008,2.008,0,0,0,0,33.741v4.643a2.008,2.008,0,0,0,2.194,1.741H5.85v2.321c0,1.28-1.312,2.321-2.925,2.321H2.559a1,1,0,0,0-1.1.871v1.741a1,1,0,0,0,1.1.871h.366c4.04,0,7.313-2.6,7.313-5.8V33.741A2.008,2.008,0,0,0,8.044,32Z" transform="translate(0 -32)"/></svg>