<svg xmlns="http://www.w3.org/2000/svg" width="23.405" height="16.246" viewBox="0 0 23.405 16.246"><defs><style>.a{fill:#eaeef6;}</style></defs><path class="a" d="M21.211,40.123H17.554V37.8c0-1.28,1.312-2.321,2.926-2.321h.366a1,1,0,0,0,1.1-.87V32.87a1,1,0,0,0-1.1-.87h-.366c-4.041,0-7.314,2.6-7.314,5.8v8.7a2.008,2.008,0,0,0,2.194,1.741h5.851A2.008,2.008,0,0,0,23.4,46.505V41.863A2.008,2.008,0,0,0,21.211,40.123Zm-13.165,0H4.388V37.8c0-1.28,1.312-2.321,2.926-2.321H7.68a1,1,0,0,0,1.1-.87V32.87A1,1,0,0,0,7.68,32H7.314C3.273,32,0,34.6,0,37.8v8.7a2.008,2.008,0,0,0,2.194,1.741H8.045a2.008,2.008,0,0,0,2.194-1.741V41.863A2.008,2.008,0,0,0,8.045,40.123Z" transform="translate(0 -32)"/></svg>